<?xml version="1.0" encoding="utf-8"?><!DOCTYPE svg PUBLIC "-//W3C//DTD SVG 1.1//EN" "http://www.w3.org/Graphics/SVG/1.1/DTD/svg11.dtd"><svg viewBox="0 0 682 682" xmlns="http://www.w3.org/2000/svg" xmlns:xlink="http://www.w3.org/1999/xlink"><style>:root>svg{display:none}:root>svg:target{display:block}</style><svg viewBox="0 0 24 24" id="001-telegram" xmlns="http://www.w3.org/2000/svg"><path d="M9.417 15.181l-.397 5.584c.568 0 .814-.244 1.109-.537l2.663-2.545 5.518 4.041c1.012.564 1.725.267 1.998-.931L23.93 3.821l.001-.001c.321-1.496-.541-2.081-1.527-1.714l-21.29 8.151c-1.453.564-1.431 1.374-.247 1.741l5.443 1.693L18.953 5.78c.595-.394 1.136-.176.691.218z"/></svg><svg viewBox="0 0 348.077 348.077" id="002-call-answer" xmlns="http://www.w3.org/2000/svg"><path d="M340.273 275.083l-53.755-53.761c-10.707-10.664-28.438-10.34-39.518.744l-27.082 27.076a792.327 792.327 0 01-5.344-2.973c-17.102-9.476-40.509-22.464-65.14-47.113-24.704-24.701-37.704-48.144-47.209-65.257-1.003-1.813-1.964-3.561-2.913-5.221l18.176-18.149 8.936-8.947c11.097-11.1 11.403-28.826.721-39.521L73.39 8.194c-10.682-10.68-28.421-10.356-39.518.744l-15.15 15.237.414.411c-5.08 6.482-9.325 13.958-12.484 22.02C3.74 54.28 1.927 61.603 1.098 68.941-6 127.785 20.89 181.564 93.866 254.541c100.875 100.868 182.167 93.248 185.674 92.876 7.638-.913 14.958-2.738 22.397-5.627 7.992-3.122 15.463-7.361 21.941-12.43l.331.294 15.348-15.029c11.074-11.098 11.393-28.83.716-39.542z"/></svg><svg viewBox="0 0 24 24" id="002-facebook" xmlns="http://www.w3.org/2000/svg"><path d="M15.997 3.985h2.191V.169C17.81.117 16.51 0 14.996 0c-3.159 0-5.323 1.987-5.323 5.639V9H6.187v4.266h3.486V24h4.274V13.267h3.345l.531-4.266h-3.877V6.062c.001-1.233.333-2.077 2.051-2.077z"/></svg><svg viewBox="0 0 24 24" id="003-instagram" xmlns="http://www.w3.org/2000/svg"><path d="M12.004 5.838a6.157 6.157 0 00-6.158 6.158 6.157 6.157 0 006.158 6.158 6.157 6.157 0 006.158-6.158 6.157 6.157 0 00-6.158-6.158zm0 10.155a3.996 3.996 0 113.997-3.997 3.995 3.995 0 01-3.997 3.997z"/><path d="M16.948.076c-2.208-.103-7.677-.098-9.887 0-1.942.091-3.655.56-5.036 1.941C-.283 4.325.012 7.435.012 11.996c0 4.668-.26 7.706 2.013 9.979 2.317 2.316 5.472 2.013 9.979 2.013 4.624 0 6.22.003 7.855-.63 2.223-.863 3.901-2.85 4.065-6.419.104-2.209.098-7.677 0-9.887-.198-4.213-2.459-6.768-6.976-6.976zm3.495 20.372c-1.513 1.513-3.612 1.378-8.468 1.378-5 0-7.005.074-8.468-1.393-1.685-1.677-1.38-4.37-1.38-8.453 0-5.525-.567-9.504 4.978-9.788 1.274-.045 1.649-.06 4.856-.06l.045.03c5.329 0 9.51-.558 9.761 4.986.057 1.265.07 1.645.07 4.847-.001 4.942.093 6.959-1.394 8.453z"/><circle cx="18.406" cy="5.595" r="1.439"/></svg><svg viewBox="0 0 97.713 97.713" id="005-map" xmlns="http://www.w3.org/2000/svg"><path d="M48.855 0C29.021 0 12.883 16.138 12.883 35.974c0 5.174 1.059 10.114 3.146 14.684 8.994 19.681 26.238 40.46 31.31 46.359a2.003 2.003 0 003.034 0c5.07-5.898 22.314-26.676 31.311-46.359 2.088-4.57 3.146-9.51 3.146-14.684C84.828 16.138 68.69 0 48.855 0zm0 54.659c-10.303 0-18.686-8.383-18.686-18.686 0-10.304 8.383-18.687 18.686-18.687s18.686 8.383 18.686 18.687c.001 10.303-8.382 18.686-18.686 18.686z"/></svg><svg viewBox="0 0 550.795 550.795" id="012-mail" xmlns="http://www.w3.org/2000/svg"><path d="M501.613 491.782c12.381 0 23.109-4.088 32.229-12.16L377.793 323.567a2878.213 2878.213 0 00-10.801 7.767c-11.678 8.604-21.156 15.318-28.434 20.129-7.277 4.822-16.959 9.737-29.045 14.755-12.094 5.024-23.361 7.528-33.813 7.528h-.612c-10.453 0-21.72-2.503-33.813-7.528-12.093-5.018-21.775-9.933-29.045-14.755-7.277-4.811-16.75-11.524-28.434-20.129a1351.934 1351.934 0 00-10.771-7.809L16.946 479.622c9.119 8.072 19.854 12.16 32.234 12.16h452.433zM31.047 225.299C19.37 217.514 9.015 208.598 0 198.555V435.98l137.541-137.541c-27.516-19.21-62.969-43.562-106.494-73.14zM520.059 225.299c-41.865 28.336-77.447 52.73-106.75 73.195l137.486 137.492V198.555c-8.815 9.841-19.059 18.751-30.736 26.744z"/><path d="M501.613 59.013H49.181c-15.784 0-27.919 5.33-36.42 15.979C4.253 85.646.006 98.97.006 114.949c0 12.907 5.636 26.892 16.903 41.959 11.267 15.061 23.256 26.891 35.961 35.496 6.965 4.921 27.969 19.523 63.012 43.801a20367.497 20367.497 0 0149.505 34.395 8855.122 8855.122 0 0131.022 21.701c.985.691 2.534 1.799 4.59 3.269 2.215 1.591 5.018 3.61 8.476 6.107 6.659 4.816 12.191 8.709 16.597 11.683 4.4 2.975 9.731 6.298 15.985 9.988 6.249 3.685 12.143 6.456 17.675 8.299 5.533 1.842 10.655 2.766 15.367 2.766h.612c4.711 0 9.834-.924 15.368-2.766 5.531-1.843 11.42-4.608 17.674-8.299 6.248-3.69 11.572-7.02 15.986-9.988 4.406-2.974 9.938-6.866 16.598-11.683 3.451-2.497 6.254-4.517 8.469-6.102a643.575 643.575 0 014.596-3.274c6.684-4.651 17.1-11.892 31.104-21.616 25.482-17.705 63.01-43.764 112.742-78.281 14.957-10.447 27.453-23.054 37.496-37.803 10.025-14.749 15.051-30.22 15.051-46.408 0-13.525-4.873-25.098-14.598-34.737-9.736-9.627-21.265-14.443-34.584-14.443z"/></svg><svg viewBox="0 0 299.995 299.995" id="013-clock" xmlns="http://www.w3.org/2000/svg"><path d="M149.995 0C67.156 0 0 67.158 0 149.995s67.156 150 149.995 150 150-67.163 150-150S232.834 0 149.995 0zm64.847 178.524H151.25c-.215 0-.415-.052-.628-.06-.213.01-.412.06-.628.06-5.729 0-10.374-4.645-10.374-10.374V62.249c0-5.729 4.645-10.374 10.374-10.374s10.374 4.645 10.374 10.374v95.527h54.47c5.729 0 10.374 4.645 10.374 10.374 0 5.729-4.641 10.374-10.37 10.374z"/></svg><svg viewBox="0 0 477.175 477.175" id="back" xmlns="http://www.w3.org/2000/svg"><path d="M145.188 238.575l215.5-215.5c5.3-5.3 5.3-13.8 0-19.1s-13.8-5.3-19.1 0l-225.1 225.1c-5.3 5.3-5.3 13.8 0 19.1l225.1 225c2.6 2.6 6.1 4 9.5 4s6.9-1.3 9.5-4c5.3-5.3 5.3-13.8 0-19.1l-215.4-215.5z"/></svg><svg viewBox="0 0 26.5 26.5" id="dots" xmlns="http://www.w3.org/2000/svg"><path stroke="#DDD" fill="none" d="M13 .5C19.904.5 25.5 6.096 25.5 13c0 6.903-5.596 12.5-12.5 12.5S.5 19.903.5 13C.5 6.096 6.096.5 13 .5z"/></svg><svg viewBox="0 0 477.175 477.175" id="next" xmlns="http://www.w3.org/2000/svg"><path d="M360.731 229.075l-225.1-225.1c-5.3-5.3-13.8-5.3-19.1 0s-5.3 13.8 0 19.1l215.5 215.5-215.5 215.5c-5.3 5.3-5.3 13.8 0 19.1 2.6 2.6 6.1 4 9.5 4 3.4 0 6.9-1.3 9.5-4l225.1-225.1c5.3-5.2 5.3-13.8.1-19z"/></svg><svg viewBox="0 0 512 512" id="whatsapp" xmlns="http://www.w3.org/2000/svg"><path d="M256.064 0h-.128C114.784 0 0 114.816 0 256c0 56 18.048 107.904 48.736 150.048l-31.904 95.104 98.4-31.456C155.712 496.512 204 512 256.064 512 397.216 512 512 397.152 512 256S397.216 0 256.064 0zm148.96 361.504c-6.176 17.44-30.688 31.904-50.24 36.128-13.376 2.848-30.848 5.12-89.664-19.264-75.232-31.168-123.68-107.616-127.456-112.576-3.616-4.96-30.4-40.48-30.4-77.216s18.656-54.624 26.176-62.304c6.176-6.304 16.384-9.184 26.176-9.184 3.168 0 6.016.16 8.576.288 7.52.32 11.296.768 16.256 12.64 6.176 14.88 21.216 51.616 23.008 55.392 1.824 3.776 3.648 8.896 1.088 13.856-2.4 5.12-4.512 7.392-8.288 11.744-3.776 4.352-7.36 7.68-11.136 12.352-3.456 4.064-7.36 8.416-3.008 15.936 4.352 7.36 19.392 31.904 41.536 51.616 28.576 25.44 51.744 33.568 60.032 37.024 6.176 2.56 13.536 1.952 18.048-2.848 5.728-6.176 12.8-16.416 20-26.496 5.12-7.232 11.584-8.128 18.368-5.568 6.912 2.4 43.488 20.48 51.008 24.224 7.52 3.776 12.48 5.568 14.304 8.736 1.792 3.168 1.792 18.048-4.384 35.52z"/></svg><svg viewBox="-21 -117 682.667 682" id="youtube" xmlns="http://www.w3.org/2000/svg"><path d="M626.813 64.035c-7.375-27.418-28.993-49.031-56.407-56.414C520.324-6.082 319.992-6.082 319.992-6.082s-200.324 0-250.406 13.184c-26.887 7.375-49.031 29.52-56.406 56.933C0 114.113 0 217.97 0 217.97s0 104.379 13.18 153.933c7.382 27.414 28.992 49.028 56.41 56.41C120.195 442.02 320 442.02 320 442.02s200.324 0 250.406-13.184c27.418-7.379 49.032-28.992 56.414-56.406 13.176-50.082 13.176-153.934 13.176-153.934s.527-104.383-13.183-154.46zM256.21 313.915V122.022l166.586 95.946zm0 0"/></svg></svg>